<svg xmlns="http://www.w3.org/2000/svg" viewBox="0 0 999.36 273.53"><defs><style>.cls-1{fill:#fff;}</style></defs><g id="Capa_2" data-name="Capa 2"><g id="Capa_1-2" data-name="Capa 1"><path class="cls-1" d="M354.68,213.3V37.64h37.64V178.42h81.81V213.3Z"/><path class="cls-1" d="M529.84,61.86a22.73,22.73,0,0,1-31.62,0,21.13,21.13,0,0,1-6.52-15.69,22.34,22.34,0,1,1,44.67,0A21.11,21.11,0,0,1,529.84,61.86ZM495.46,213.3V80.3h36.39v133Z"/><path class="cls-1" d="M627,271.27A70.58,70.58,0,0,1,584.8,258q-18.57-13.31-24.6-38.64h36.39q7.27,18.06,29.86,18.06,14.56,0,22.47-8t7.9-22.84v-6.78q-14.8,12.3-36.64,12.3-28.6,0-47.17-19.32T554.44,145q0-28.84,18.94-48.18T620.18,78q21.59.25,36.64,13.8V80.3h36.39V206.53q0,27.85-18.7,46.3T627,271.27ZM598.72,169.51a34.5,34.5,0,0,0,25,10.17,34.91,34.91,0,0,0,25.09-10.17,33.81,33.81,0,0,0,.13-48.93,36.08,36.08,0,0,0-50.2,0,34,34,0,0,0,0,48.93Z"/><path class="cls-1" d="M780.29,215.31q-26.87,0-46.3-20.32T714.54,146.8q0-28.86,19.32-48.81T780.29,78q21.32,0,36.63,13.55V37.64h36.39V213.3H816.92v-11Q801.86,215.31,780.29,215.31Zm3.51-32.87a34.1,34.1,0,0,0,25.1-10.67q10.53-10.67,10.53-25T808.9,121.71a33.88,33.88,0,0,0-25.1-10.79,33.41,33.41,0,0,0-25.22,10.66,35.33,35.33,0,0,0-10.17,25.22,34.92,34.92,0,0,0,10.17,25.1A33.63,33.63,0,0,0,783.8,182.44Z"/><path class="cls-1" d="M925.08,215.31a73.38,73.38,0,0,1-15.94-1.76A64,64,0,0,1,893,207.4a32.74,32.74,0,0,1-13.3-13.3q-5-8.9-5-21.2,0-21.33,14.18-31.12T927.09,132H965v-6.28q0-16.81-25.85-16.81-22.08,0-26.85,13.8l-34.63.5q0-20.07,17.57-32.62T938.38,78q24.84,0,42.91,12.17t18.07,31.24V213.3H965V200.51q-5.26,6-15.93,10.41A62.62,62.62,0,0,1,925.08,215.31Zm3-29.61a42.69,42.69,0,0,0,25.22-8.28Q965,169.14,965,157.59H933.86q-11.54,0-17.69,4.4A11.74,11.74,0,0,0,911,173.9Q912.53,185.71,928.09,185.7Z"/><path class="cls-1" d="M292.37,110.72,129.55,273.53,94.66,238.64,225.15,108.16,149.32,32.33,181.65,0Z"/><path class="cls-1" d="M119.17,24.81,0,144l25.54,25.54L121.05,74l55.5,55.5,23.66-23.66Z"/></g></g></svg>